<svg width="1200" height="500" viewBox="0 0 1200 500" fill="none" xmlns="http://www.w3.org/2000/svg">
  <defs>
    <linearGradient id="bg" x1="0" y1="0" x2="1200" y2="500" gradientUnits="userSpaceOnUse">
      <stop stop-color="#1E1B4B"/>
      <stop offset="1" stop-color="#0EA5A4"/>
    </linearGradient>
    <linearGradient id="card" x1="0" y1="0" x2="1" y2="1">
      <stop stop-color="#ffffff" stop-opacity="0.92"/>
      <stop offset="1" stop-color="#dbeafe" stop-opacity="0.7"/>
    </linearGradient>
  </defs>
  <rect width="1200" height="500" fill="url(#bg)"/>
  <circle cx="1060" cy="70" r="110" fill="#38BDF8" fill-opacity="0.25"/>
  <circle cx="140" cy="420" r="140" fill="#22C55E" fill-opacity="0.2"/>

  <rect x="120" y="90" width="420" height="320" rx="26" fill="url(#card)"/>
  <rect x="160" y="140" width="330" height="24" rx="12" fill="#6366F1" fill-opacity="0.35"/>
  <rect x="160" y="184" width="250" height="18" rx="9" fill="#0EA5A4" fill-opacity="0.35"/>
  <rect x="160" y="216" width="300" height="18" rx="9" fill="#0EA5A4" fill-opacity="0.2"/>
  <rect x="160" y="254" width="150" height="50" rx="14" fill="#4F46E5"/>
  <rect x="326" y="254" width="164" height="50" rx="14" fill="#14B8A6"/>

  <rect x="650" y="110" width="430" height="280" rx="30" fill="#FFFFFF" fill-opacity="0.16" stroke="#FFFFFF" stroke-opacity="0.4"/>
  <rect x="700" y="170" width="320" height="28" rx="14" fill="#FFFFFF" fill-opacity="0.45"/>
  <rect x="700" y="214" width="260" height="18" rx="9" fill="#FFFFFF" fill-opacity="0.25"/>
  <rect x="700" y="246" width="290" height="18" rx="9" fill="#FFFFFF" fill-opacity="0.25"/>

  <text x="700" y="335" fill="white" font-family="Arial, sans-serif" font-size="42" font-weight="700">SalonFlow</text>
</svg>
